# xmcd CD database file generated by GCD 2.95
# 
# Track frame offsets:
#       150
#       29027
#       54065
#       66070
#       86625
#       103251
#       118639
#       144323
#       159625
#       174251
#       203802
#       213097
#       226413
#       234699
#       240134
#       246976
#       255282
#       261995
#       270210
#       277115
#       281423
#       302612
#       314663
#       325288
#       329657
# 
# Disc length: 4604 seconds
# 
# Revision: 3
# Processed by: cddbd v1.4PL0 Copyright (c) Steve Scherf et al.
# Submitted via: GCD 2.95
# 
DISCID=6611fa19
DTITLE=Various Artist - Art and Music-Pablo Picasso
DYEAR=1900
DGENRE=
TTITLE0=I. Albeniz: Asturias from Suite Espaola No.1
TTITLE1=I. Albeniz: Malaga from Iberia Book 4
TTITLE2=I. Stravinsky, Petrushka-Danse Russe
TTITLE3=I. Stravinsky, Petrushka-Petrushka
TTITLE4=I. Stravinsky, Petrushka-The Blackamoor
TTITLE5=I. Stravinsky, Petrushka-Valse
TTITLE6=Erik Satie, Parade-Choral, Prelude du rideau rouge, Pestidigitateur chinois
TTITLE7=M. de Falla, The Three-Cornered Hat Suite No.2-Neighbour압 Dance
TTITLE8=M. de Falla, The Three-Cornered Hat Suite No.2-Miller압 Dance
TTITLE9=M. de Falla, The Three-Cornered Hat Suite No.2-Final Dance
TTITLE10=I. Stravinsky, Pulcinella-Ouverture
TTITLE11=I. Stravinsky, Pulcinella-Serenata
TTITLE12=I. Stravinsky, Pulcinella-Scherzinno
TTITLE13=I. Stravinsky, Pulcinella-Allegro
TTITLE14=I. Stravinsky, Pulcinella-Andantino
TTITLE15=I. Stravinsky, Pulcinella-Allegro
TTITLE16=F. Poulence, Banalites-Chanson dOrkeise
TTITLE17=F. Poulence, Banalites-Hotel
TTITLE18=F. Poulence, Banalites-Fagnes de Wallonie
TTITLE19=F. Poulence, Banalites-Voyage a Paris
TTITLE20=F. Poulence, Banalites-Sanglots
TTITLE21=F. Poulence, Tel jour telle nuit-Bonne journee
TTITLE22=F. Poulence, Tel jour telle nuit-Une ruine conquille vide
TTITLE23=F. Poulence, Tel jour telle nuit-Je n아i envie que de t아imer
TTITLE24=F. Poulence, Tel jour telle nuit-Nous avons fait la nuit
EXTD=
EXTT0=
EXTT1=
EXTT2=
EXTT3=
EXTT4=
EXTT5=
EXTT6=
EXTT7=
EXTT8=
EXTT9=
EXTT10=
EXTT11=
EXTT12=
EXTT13=
EXTT14=
EXTT15=
EXTT16=
EXTT17=
EXTT18=
EXTT19=
EXTT20=
EXTT21=
EXTT22=
EXTT23=
EXTT24=
PLAYORDER=
